<mxfile host="app.diagrams.net" modified="2022-02-18T12:11:58.176Z" agent="5.0 (Windows NT 10.0; Win64; x64) AppleWebKit/537.36 (KHTML, like Gecko) Chrome/96.0.4664.45 Safari/537.36" etag="kO-yxpLGUhSf6kPRqKJY" version="16.5.6" type="github">
  <diagram id="G4jP1gO0AxY-KHtM_MxY" name="Page-1">
    <mxGraphModel dx="1422" dy="762" grid="1" gridSize="10" guides="1" tooltips="1" connect="1" arrows="1" fold="1" page="1" pageScale="1" pageWidth="827" pageHeight="1169" math="0" shadow="0">
      <root>
        <mxCell id="0" />
        <mxCell id="1" parent="0" />
        <mxCell id="wfUpjJ1bM1_d2H-S81b9-7" style="edgeStyle=orthogonalEdgeStyle;rounded=0;orthogonalLoop=1;jettySize=auto;html=1;exitX=1;exitY=0.5;exitDx=0;exitDy=0;entryX=0;entryY=0.5;entryDx=0;entryDy=0;" edge="1" parent="1" source="wfUpjJ1bM1_d2H-S81b9-1" target="wfUpjJ1bM1_d2H-S81b9-3">
          <mxGeometry relative="1" as="geometry" />
        </mxCell>
        <mxCell id="wfUpjJ1bM1_d2H-S81b9-1" value="质检设备" style="rounded=0;whiteSpace=wrap;html=1;" vertex="1" parent="1">
          <mxGeometry x="100" y="70" width="90" height="40" as="geometry" />
        </mxCell>
        <mxCell id="wfUpjJ1bM1_d2H-S81b9-8" value="" style="edgeStyle=orthogonalEdgeStyle;rounded=0;orthogonalLoop=1;jettySize=auto;html=1;" edge="1" parent="1" source="wfUpjJ1bM1_d2H-S81b9-3" target="wfUpjJ1bM1_d2H-S81b9-4">
          <mxGeometry relative="1" as="geometry" />
        </mxCell>
        <mxCell id="wfUpjJ1bM1_d2H-S81b9-3" value="采集数据" style="rounded=1;whiteSpace=wrap;html=1;" vertex="1" parent="1">
          <mxGeometry x="240" y="70" width="80" height="40" as="geometry" />
        </mxCell>
        <mxCell id="wfUpjJ1bM1_d2H-S81b9-9" style="edgeStyle=orthogonalEdgeStyle;rounded=0;orthogonalLoop=1;jettySize=auto;html=1;entryX=0;entryY=0.5;entryDx=0;entryDy=0;" edge="1" parent="1" source="wfUpjJ1bM1_d2H-S81b9-4" target="wfUpjJ1bM1_d2H-S81b9-5">
          <mxGeometry relative="1" as="geometry" />
        </mxCell>
        <mxCell id="wfUpjJ1bM1_d2H-S81b9-10" style="edgeStyle=orthogonalEdgeStyle;rounded=0;orthogonalLoop=1;jettySize=auto;html=1;entryX=0;entryY=0.5;entryDx=0;entryDy=0;" edge="1" parent="1" source="wfUpjJ1bM1_d2H-S81b9-4" target="wfUpjJ1bM1_d2H-S81b9-11">
          <mxGeometry relative="1" as="geometry">
            <mxPoint x="539.2" y="116" as="targetPoint" />
          </mxGeometry>
        </mxCell>
        <mxCell id="wfUpjJ1bM1_d2H-S81b9-4" value="算法处理" style="rounded=1;whiteSpace=wrap;html=1;" vertex="1" parent="1">
          <mxGeometry x="370" y="70" width="100" height="40" as="geometry" />
        </mxCell>
        <mxCell id="wfUpjJ1bM1_d2H-S81b9-5" value="雅典娜系统" style="rounded=1;whiteSpace=wrap;html=1;" vertex="1" parent="1">
          <mxGeometry x="540" y="30" width="100" height="50" as="geometry" />
        </mxCell>
        <mxCell id="wfUpjJ1bM1_d2H-S81b9-11" value="万象系统" style="rounded=1;whiteSpace=wrap;html=1;" vertex="1" parent="1">
          <mxGeometry x="540" y="100" width="100" height="50" as="geometry" />
        </mxCell>
      </root>
    </mxGraphModel>
  </diagram>
</mxfile>
